<?xml version="1.0" encoding="UTF-8"?>
<svg width="1024" height="1024" viewBox="0 0 1024 1024" fill="none" xmlns="http://www.w3.org/2000/svg">
    <path d="M924 356.627C924 346.845 924 337.062 923.944 327.279C923.895 319.038 923.8 310.799 923.576 302.562C923.092 284.609 922.033 266.502 918.84 248.749C915.602 230.741 910.314 213.98 901.981 197.617C893.789 181.534 883.088 166.817 870.32 154.058C857.555 141.299 842.834 130.605 826.746 122.418C810.366 114.083 793.587 108.797 775.558 105.56C757.803 102.372 739.691 101.315 721.738 100.83C713.495 100.607 705.253 100.513 697.008 100.462C687.22 100.402 677.432 100.407 667.644 100.407L553.997 100H468.997L357.361 100.407C347.554 100.407 337.747 100.402 327.94 100.462C319.678 100.513 311.42 100.607 303.161 100.83C285.167 101.315 267.014 102.373 249.217 105.565C231.164 108.801 214.36 114.085 197.958 122.414C181.835 130.602 167.083 141.297 154.291 154.058C141.501 166.816 130.78 181.53 122.573 197.61C114.217 213.981 108.919 230.752 105.673 248.77C102.477 266.516 101.418 284.617 100.931 302.562C100.709 310.8 100.613 319.039 100.563 327.279C100.503 337.063 100 349.216 100 358.999V469.089V554.998L100.508 667.427C100.508 677.223 100.504 687.019 100.563 696.815C100.613 705.067 100.709 713.317 100.932 721.566C101.418 739.542 102.479 757.675 105.678 775.452C108.923 793.484 114.22 810.269 122.569 826.653C130.777 842.759 141.5 857.495 154.291 870.272C167.082 883.049 181.83 893.757 197.95 901.956C214.362 910.302 231.174 915.595 249.238 918.836C267.027 922.029 285.174 923.088 303.161 923.573C311.42 923.796 319.679 923.891 327.941 923.941C337.748 924 347.554 924 357.361 924H470.006H555.217H667.644C677.432 924 687.22 924 697.008 923.941C705.253 923.891 713.495 923.796 721.738 923.573C739.698 923.087 757.816 922.027 775.579 918.832C793.597 915.591 810.368 910.3 826.739 901.959C842.831 893.761 857.554 883.051 870.32 870.272C883.086 857.497 893.786 842.763 901.978 826.66C910.316 810.268 915.604 793.475 918.844 775.431C922.034 757.661 923.092 739.535 923.577 721.566C923.8 713.316 923.895 705.066 923.944 696.815C924 687.019 924 677.223 924 667.427C924 667.427 924 556.983 924 554.998V468.999C924 467.533 924 356.627 924 356.627Z" fill="black"/>
    <g filter="url(#filter0_d_1_259)">
        <path d="M164 395.072C164 204.784 204.784 164 395.072 164H628.928C819.216 164 860 204.784 860 395.072V628.928C860 819.216 819.216 860 628.928 860H395.072C204.784 860 164 819.216 164 628.928V395.072Z" fill="white"/>
    </g>
    <g filter="url(#filter1_dii_1_259)">
        <path fill-rule="evenodd" clip-rule="evenodd" d="M576 118C576 82.6538 547.346 54 512 54C476.654 54 448 82.6538 448 118H385C376.163 118 369 125.163 369 134V179C369 187.837 376.163 195 385 195H638C646.837 195 654 187.837 654 179V134C654 125.163 646.837 118 638 118H576ZM512 150C529.673 150 544 135.673 544 118C544 100.327 529.673 86 512 86C494.327 86 480 100.327 480 118C480 135.673 494.327 150 512 150Z" fill="#DADADA"/>
    </g>
    <rect x="232" y="254" width="475" height="32" rx="8" fill="#D9D9D9"/>
    <rect x="232" y="302" width="560" height="32" rx="8" fill="#D9D9D9"/>
    <rect x="232" y="622" width="560" height="148" rx="8" fill="#D9D9D9"/>
    <rect x="232" y="398" width="511" height="32" rx="8" fill="#D9D9D9"/>
    <rect x="232" y="446" width="195" height="32" rx="8" fill="#D9D9D9"/>
    <path d="M443 454C443 449.582 446.582 446 451 446H630C634.418 446 638 449.582 638 454V470C638 474.418 634.418 478 630 478H451C446.582 478 443 474.418 443 470V454Z" fill="#D9D9D9"/>
    <rect x="232" y="350" width="195" height="32" rx="8" fill="#D9D9D9"/>
    <path d="M443 358C443 353.582 446.582 350 451 350H630C634.418 350 638 353.582 638 358V374C638 378.418 634.418 382 630 382H451C446.582 382 443 378.418 443 374V358Z" fill="#D9D9D9"/>
    <rect x="280" y="510" width="345" height="32" rx="8" fill="#D9D9D9"/>
    <rect x="281" y="558" width="463" height="32" rx="8" fill="#D9D9D9"/>
    <path fill-rule="evenodd" clip-rule="evenodd" d="M248 510C239.163 510 232 517.163 232 526C232 534.837 239.163 542 248 542C256.837 542 264 534.837 264 526C264 517.163 256.837 510 248 510ZM248 518C243.582 518 240 521.582 240 526C240 530.418 243.582 534 248 534C252.418 534 256 530.418 256 526C256 521.582 252.418 518 248 518Z" fill="#D9D9D9"/>
    <path fill-rule="evenodd" clip-rule="evenodd" d="M248 558C239.163 558 232 565.163 232 574C232 582.837 239.163 590 248 590C256.837 590 264 582.837 264 574C264 565.163 256.837 558 248 558ZM248 566C243.582 566 240 569.582 240 574C240 578.418 243.582 582 248 582C252.418 582 256 578.418 256 574C256 569.582 252.418 566 248 566Z" fill="#D9D9D9"/>
    <defs>
        <filter id="filter0_d_1_259" x="160" y="164" width="704" height="704" filterUnits="userSpaceOnUse" color-interpolation-filters="sRGB">
            <feFlood flood-opacity="0" result="BackgroundImageFix"/>
            <feColorMatrix in="SourceAlpha" type="matrix" values="0 0 0 0 0 0 0 0 0 0 0 0 0 0 0 0 0 0 127 0" result="hardAlpha"/>
            <feOffset dy="4"/>
            <feGaussianBlur stdDeviation="2"/>
            <feComposite in2="hardAlpha" operator="out"/>
            <feColorMatrix type="matrix" values="0 0 0 0 0 0 0 0 0 0 0 0 0 0 0 0 0 0 0.25 0"/>
            <feBlend mode="normal" in2="BackgroundImageFix" result="effect1_dropShadow_1_259"/>
            <feBlend mode="normal" in="SourceGraphic" in2="effect1_dropShadow_1_259" result="shape"/>
        </filter>
        <filter id="filter1_dii_1_259" x="365" y="54" width="293" height="149" filterUnits="userSpaceOnUse" color-interpolation-filters="sRGB">
            <feFlood flood-opacity="0" result="BackgroundImageFix"/>
            <feColorMatrix in="SourceAlpha" type="matrix" values="0 0 0 0 0 0 0 0 0 0 0 0 0 0 0 0 0 0 127 0" result="hardAlpha"/>
            <feOffset dy="4"/>
            <feGaussianBlur stdDeviation="2"/>
            <feComposite in2="hardAlpha" operator="out"/>
            <feColorMatrix type="matrix" values="0 0 0 0 0 0 0 0 0 0 0 0 0 0 0 0 0 0 0.25 0"/>
            <feBlend mode="normal" in2="BackgroundImageFix" result="effect1_dropShadow_1_259"/>
            <feBlend mode="normal" in="SourceGraphic" in2="effect1_dropShadow_1_259" result="shape"/>
            <feColorMatrix in="SourceAlpha" type="matrix" values="0 0 0 0 0 0 0 0 0 0 0 0 0 0 0 0 0 0 127 0" result="hardAlpha"/>
            <feOffset dy="4"/>
            <feGaussianBlur stdDeviation="1"/>
            <feComposite in2="hardAlpha" operator="arithmetic" k2="-1" k3="1"/>
            <feColorMatrix type="matrix" values="0 0 0 0 0.934554 0 0 0 0 0.934554 0 0 0 0 0.934554 0 0 0 0.6 0"/>
            <feBlend mode="normal" in2="shape" result="effect2_innerShadow_1_259"/>
            <feColorMatrix in="SourceAlpha" type="matrix" values="0 0 0 0 0 0 0 0 0 0 0 0 0 0 0 0 0 0 127 0" result="hardAlpha"/>
            <feOffset dy="1"/>
            <feGaussianBlur stdDeviation="0.5"/>
            <feComposite in2="hardAlpha" operator="arithmetic" k2="-1" k3="1"/>
            <feColorMatrix type="matrix" values="0 0 0 0 0 0 0 0 0 0 0 0 0 0 0 0 0 0 0.25 0"/>
            <feBlend mode="normal" in2="effect2_innerShadow_1_259" result="effect3_innerShadow_1_259"/>
        </filter>
    </defs>
</svg>
